:FULLY-SPECIFIED
:FORCE-ALL-JOINTS-BE-3DOF
:DEGREES
747
root 4.09619 17.0453 14.4115 -163.812 -7.94423 -171.123
lfemur -31.9798 3.26162 -13.4764
ltibia 42.7529 -0 0
lfoot -19.2342 0.63729 -1.73344
ltoes 11.8502 -0 0
rfemur -26.3454 -31.4124 9.8398
rtibia 106.233 -0 0
rfoot 20.9199 1.307 0.362838
rtoes 24.8756 -0 0
lowerback 2.7048 6.37576 -1.78379
upperback -1.25948 8.43265 -2.10254
thorax -2.70819 4.22927 -1.57058
lowerneck -6.56361 -8.44576 -1.72749
upperneck -2.11336 -11.35 5.5662
head 0.888902 -5.69866 1.68977
lclavicle 2.08724e-14 -3.73715e-14 0
lhumerus -52.5549 -11.0543 72.7737
lradius 52.0029 -0 0
lwrist 16.4176 0 0
lhand -27.1882 -5.3932 0.0340583
lfingers 7.12502 -0 0
lthumb -0.601894 24.5557 0.0327236
rclavicle 2.08724e-14 -3.73715e-14 0
rhumerus 21.7459 38.728 -65.9436
rradius 91.7195 -0 0
rwrist 0.205419 0 0
rhand -21.179 -21.7707 0.414937
rfingers 7.12502 -0 0
rthumb 5.19971 -51.5873 0.406773
748
root 4.053 16.8849 14.6051 -163.777 -5.64102 -171.178
lfemur -33.2241 4.94435 -14.6425
ltibia 45.2036 -0 0
lfoot -21.5972 2.04694 -1.58745
ltoes 11.3446 -0 0
rfemur -26.3563 -31.6238 11.4717
rtibia 104.428 -0 0
rfoot 19.908 0.621401 0.332538
rtoes 24.5089 -0 0
lowerback 2.93096 6.27365 -2.10845
upperback -1.11987 8.28158 -2.191
thorax -2.72707 4.16035 -1.49882
lowerneck -6.42073 -8.52601 -1.77763
upperneck -2.15414 -11.4619 5.81709
head 0.875725 -5.75701 1.77822
lclavicle 2.08724e-14 -3.73715e-14 0
lhumerus -52.1457 -10.5116 75.0977
lradius 52.3165 -0 0
lwrist 15.9454 0 0
lhand -27.6662 -5.52931 0.0312191
lfingers 7.12502 -0 0
lthumb -1.06352 24.4203 0.0299958
rclavicle 2.08724e-14 -3.73715e-14 0
rhumerus 19.4893 41.0902 -68.8435
rradius 91.7961 -0 0
rwrist 0.999191 0 0
rhand -20.3128 -20.8548 0.380282
rfingers 7.12502 -0 0
rthumb 6.0362 -50.6574 0.372801
749
root 4.00981 16.7245 14.7987 -163.744 -3.33778 -171.231
lfemur -34.5063 6.60102 -15.8486
ltibia 47.6543 -0 0
lfoot -23.9557 3.44926 -1.38353
ltoes 10.8389 -0 0
rfemur -26.3742 -31.8348 13.1074
rtibia 102.622 -0 0
rfoot 18.8965 -0.0635565 0.290138
rtoes 24.1422 -0 0
lowerback 3.15764 6.17282 -2.43345
upperback -0.980074 8.13072 -2.2798
thorax -2.74603 4.09146 -1.42704
lowerneck -6.27776 -8.60613 -1.82799
upperneck -2.19543 -11.5736 6.06816
head 0.862457 -5.81533 1.8667
lclavicle 2.08724e-14 -3.73715e-14 0
lhumerus -51.7151 -9.98556 77.4217
lradius 52.6302 -0 0
lwrist 15.4733 0 0
lhand -28.1442 -5.6654 0.0272446
lfingers 7.12502 -0 0
lthumb -1.52514 24.2849 0.0261771
rclavicle 2.08724e-14 -3.73715e-14 0
rhumerus 16.9872 43.3581 -71.9772
rradius 91.8727 -0 0
rwrist 1.79296 0 0
rhand -19.4471 -19.9395 0.331788
rfingers 7.12502 -0 0
rthumb 6.87203 -49.7281 0.325263
750
root 3.96661 16.5641 14.9923 -163.713 -1.03451 -171.283
lfemur -35.8282 8.23001 -17.0964
ltibia 50.105 -0 0
lfoot -26.3083 4.84188 -1.12217
ltoes 10.3333 -0 0
rfemur -26.3994 -32.0453 14.7469
rtibia 100.817 -0 0
rfoot 17.8857 -0.747656 0.235657
rtoes 23.7755 -0 0
lowerback 3.38486 6.07326 -2.75879
upperback -0.840097 7.98008 -2.36894
thorax -2.76508 4.02259 -1.35524
lowerneck -6.13468 -8.68613 -1.87855
upperneck -2.23724 -11.6851 6.31941
head 0.849096 -5.87364 1.9552
lclavicle 2.08724e-14 -3.73715e-14 0
lhumerus -51.2639 -9.47718 79.7461
lradius 52.9438 -0 0
lwrist 15.0012 0 0
lhand -28.6221 -5.80144 0.022135
lfingers 7.12502 -0 0
lthumb -1.98675 24.1495 0.0212677
rclavicle 2.08724e-14 -3.73715e-14 0
rhumerus 14.2156 45.5169 -75.3699
rradius 91.9493 -0 0
rwrist 2.58673 0 0
rhand -18.5824 -19.0251 0.26948
rfingers 7.12502 -0 0
rthumb 7.70697 -48.7997 0.264182
751
root 3.92342 16.4036 15.1859 -163.684 1.26878 -171.334
lfemur -37.1918 9.82955 -18.3875
ltibia 52.5557 -0 0
lfoot -28.6537 6.22247 -0.803957
ltoes 9.82762 -0 0
rfemur -26.4316 -32.2551 16.3903
rtibia 99.0124 -0 0
rfoot 16.8755 -1.43068 0.169119
rtoes 23.4088 -0 0
lowerback 3.6126 5.97499 -3.08446
upperback -0.699935 7.82966 -2.45842
thorax -2.78421 3.95375 -1.28343
lowerneck -5.9915 -8.76601 -1.92933
upperneck -2.27956 -11.7965 6.57084
head 0.835644 -5.93192 2.04372
lclavicle 2.08724e-14 -3.73715e-14 0
lhumerus -50.7928 -8.98725 82.0712
lradius 53.2575 -0 0
lwrist 14.529 0 0
lhand -29.1001 -5.93744 0.0158907
lfingers 7.12502 -0 0
lthumb -2.44834 24.0142 0.0152682
rclavicle 2.08724e-14 -3.73715e-14 0
rhumerus 11.1508 47.5497 -79.0465
rradius 92.0259 -0 0
rwrist 3.38051 0 0
rhand -17.7188 -18.1117 0.193387
rfingers 7.12502 -0 0
rthumb 8.5408 -47.8722 0.189586
752
root 3.88023 16.2432 15.3795 -163.658 3.5721 -171.384
lfemur -38.5988 11.3978 -19.7238
ltibia 55.0064 -0 0
lfoot -30.9906 7.5888 -0.429622
ltoes 9.32197 -0 0
rfemur -26.4711 -32.464 18.0376
rtibia 97.2073 -0 0
rfoot 15.8662 -2.11243 0.0905548
rtoes 23.042 -0 0
lowerback 3.84085 5.87802 -3.41047
upperback -0.559586 7.67945 -2.54823
thorax -2.80343 3.88493 -1.21161
lowerneck -5.84822 -8.84576 -1.98032
upperneck -2.3224 -11.9077 6.82247
head 0.822099 -5.99019 2.13227
lclavicle 2.08724e-14 -3.73715e-14 0
lhumerus -50.3027 -8.51659 84.3972
lradius 53.5711 -0 0
lwrist 14.0568 0 0
lhand -29.578 -6.07338 0.00851217
lfingers 7.12502 -0 0
lthumb -2.90992 23.879 0.00817875
rclavicle 2.08724e-14 -3.73715e-14 0
rhumerus 7.77166 49.4372 -83.0294
rradius 92.1025 -0 0
rwrist 4.17428 0 0
rhand -16.8565 -17.1996 0.103546
rfingers 7.12502 -0 0
rthumb 9.37332 -46.9459 0.101512
753
root 3.83704 16.0828 15.5731 -163.633 5.87544 188.567
lfemur -40.0512 12.9328 -21.107
ltibia 57.4571 0 0
lfoot -33.3178 8.9387 0
ltoes 8.81632 0 0
rfemur -26.5178 -32.6719 19.689
rtibia 95.4023 0 0
rfoot 14.8579 -2.79269 0
rtoes 22.6753 0 0
lowerback 4.06962 5.78233 -3.73681
upperback -0.419048 7.52946 -2.63839
thorax -2.82273 3.81613 -1.13976
lowerneck -5.70483 -8.92538 -2.03153
upperneck -2.36576 -12.0187 7.07428
head 0.808463 -6.04843 2.22084
lclavicle -6.40087e-14 5.40694e-14 0
lhumerus -49.7942 -8.06598 86.7245
lradius 53.8848 0 0
lwrist 13.5847 0 0
lhand -30.0559 -6.20926 0
lfingers 7.12502 0 0
lthumb -3.37148 23.7438 0
rclavicle -6.40087e-14 5.40694e-14 0
rhumerus 4.06158 51.158 -87.3363
rradius 92.1791 0 0
rwrist 4.96805 0 0
rhand -15.9957 -16.2889 0
rfingers 7.12502 0 0
rthumb 10.2043 -766.021 0
754
root 3.74525 16.0731 15.6966 -163.507 9.3997 -171.209
lfemur -40.3829 13.9384 -21.342
ltibia 57.5844 -0 0
lfoot -33.3214 10.1116 -0.000551104
ltoes 10.1321 -0 0
rfemur -25.854 -32.6366 19.9858
rtibia 93.3896 -0 0
rfoot 13.4032 -4.70204 0.376372
rtoes 20.5937 -0 0
lowerback 3.90798 5.72616 -3.63537
upperback -0.472582 7.46744 -2.73706
thorax -2.76322 3.78275 -1.27777
lowerneck -5.66428 -8.85707 -2.0121
upperneck -2.29813 -11.9136 6.9809
head 0.810999 -5.98662 2.19274
lclavicle -6.40087e-14 5.40694e-14 0
lhumerus -50.0207 -8.29137 87.1726
lradius 54.8998 -0 0
lwrist 13.747 0 0
lhand -29.4918 -6.19802 0.000831619
lfingers 7.12502 -0 0
lthumb -2.82674 23.7525 0.000622669
rclavicle -6.40087e-14 5.40694e-14 0
rhumerus 2.27925 51.5285 -88.3893
rradius 91.3858 -0 0
rwrist 5.20694 0 0
rhand -15.8619 -16.4419 -0.00268173
rfingers 7.12502 -0 0
rthumb 10.3334 -46.167 -0.00246825
755
root 3.65347 16.0635 15.8201 -163.366 12.9234 -170.975
lfemur -40.7204 14.9427 -21.5841
ltibia 57.7117 -0 0
lfoot -33.3249 11.2846 -0.00102919
ltoes 11.4479 -0 0
rfemur -25.1902 -32.6041 20.283
rtibia 91.377 -0 0
rfoot 11.9367 -6.62044 0.70395
rtoes 18.5121 -0 0
lowerback 3.74626 5.67027 -3.53379
upperback -0.526 7.40533 -2.83567
thorax -2.70362 3.74952 -1.41581
lowerneck -5.62372 -8.78878 -1.99263
upperneck -2.2307 -11.8085 6.88769
head 0.813504 -5.92482 2.16465
lclavicle -6.40087e-14 5.40694e-14 0
lhumerus -50.2491 -8.515 87.6218
lradius 55.9149 -0 0
lwrist 13.9093 0 0
lhand -28.9278 -6.18677 0.00155252
lfingers 7.12502 -0 0
lthumb -2.28199 23.7612 0.00116243
rclavicle -6.40087e-14 5.40694e-14 0
rhumerus 0.471954 51.8783 -89.4688
rradius 90.5924 -0 0
rwrist 5.44584 0 0
rhand -15.728 -16.595 -0.00500596
rfingers 7.12502 -0 0
rthumb 10.4625 -46.3131 -0.00460745
756
root 3.56168 16.0538 15.9437 -163.207 16.4465 -170.728
lfemur -41.064 15.9455 -21.8335
ltibia 57.8389 -0 0
lfoot -33.3285 12.4575 -0.00143407
ltoes 12.7637 -0 0
rfemur -24.5264 -32.5746 20.5805
rtibia 89.3643 -0 0
rfoot 10.4599 -8.54674 0.982148
rtoes 16.4305 -0 0
lowerback 3.58445 5.61466 -3.43206
upperback -0.579303 7.34312 -2.93419
thorax -2.64395 3.71643 -1.55388
lowerneck -5.58314 -8.72051 -1.97312
upperneck -2.16347 -11.7032 6.79463
head 0.815978 -5.86301 2.13656
lclavicle -6.40087e-14 5.40694e-14 0
lhumerus -50.4794 -8.73685 88.0722
lradius 56.9299 -0 0
lwrist 14.0716 0 0
lhand -28.3637 -6.17551 0.00216263
lfingers 7.12502 -0 0
lthumb -1.73725 23.77 0.00161923
rclavicle -6.40087e-14 5.40694e-14 0
rhumerus -1.35953 52.2066 -90.574
rradius 89.7991 -0 0
rwrist 5.68473 0 0
rhand -15.5942 -16.748 -0.00697267
rfingers 7.12502 -0 0
rthumb 10.5916 -46.4592 -0.00641759
